<svg width="552" height="320" viewBox="0 0 552 320" fill="none" xmlns="http://www.w3.org/2000/svg">
<path fill-rule="evenodd" clip-rule="evenodd" d="M5.21664 319.949C4.68741 319.88 4.17984 319.742 3.70327 319.545C3.18138 319.328 2.69666 319.04 2.26132 318.693C1.90859 318.412 1.58828 318.091 1.30691 317.739C0.959653 317.303 0.671703 316.819 0.455285 316.297C0.25766 315.82 0.119681 315.313 0.0506744 314.783C0.0172445 314.527 0 314.266 0 314V288.75C3.31371 288.75 6 291.436 6 294.75L6 314H25.2856C28.5993 314 31.2856 316.686 31.2856 320H6C5.7345 320 5.47303 319.983 5.21664 319.949ZM108.429 320C108.429 316.686 105.742 314 102.429 314H63.8571C60.5434 314 57.8571 316.686 57.8571 320H108.429ZM185.571 320C185.571 316.686 182.885 314 179.571 314H141C137.686 314 135 316.686 135 320H185.571ZM262.714 320C262.714 316.686 260.028 314 256.714 314H218.143C214.829 314 212.143 316.686 212.143 320H262.714ZM339.857 320C339.857 316.686 337.171 314 333.857 314H295.286C291.972 314 289.286 316.686 289.286 320H339.857ZM417 320C417 316.686 414.314 314 411 314H372.429C369.115 314 366.429 316.686 366.429 320H417ZM494.143 320C494.143 316.686 491.457 314 488.143 314H449.571C446.258 314 443.571 316.686 443.571 320H494.143ZM552 211.75C548.686 211.75 546 214.436 546 217.75V256.25C546 259.564 548.686 262.25 552 262.25V211.75ZM552 134.75C548.686 134.75 546 137.436 546 140.75V179.25C546 182.564 548.686 185.25 552 185.25V134.75ZM552 57.75C548.686 57.75 546 60.4363 546 63.75V102.25C546 105.564 548.686 108.25 552 108.25V57.75ZM443.571 0C443.571 3.31371 446.258 6 449.571 6H488.143C491.457 6 494.143 3.31371 494.143 0H443.571ZM366.429 0C366.429 3.31371 369.115 6 372.429 6H411C414.314 6 417 3.31371 417 0H366.429ZM289.286 0C289.286 3.31371 291.972 6 295.286 6H333.857C337.171 6 339.857 3.31371 339.857 0H289.286ZM212.143 0C212.143 3.31371 214.829 6 218.143 6H256.714C260.028 6 262.714 3.31371 262.714 0H212.143ZM135 0C135 3.31371 137.686 6 141 6H179.571C182.885 6 185.571 3.31371 185.571 0H135ZM57.8571 0C57.8571 3.31371 60.5434 6 63.8571 6H102.429C105.742 6 108.429 3.31371 108.429 0H57.8571ZM0 31.25C3.31371 31.25 6 28.5637 6 25.25V6C6 6.00001 6 6 6 6L25.2857 6C28.5994 6 31.2857 3.31371 31.2857 0H6C5.7345 0 5.47303 0.0172449 5.21664 0.0506755C4.68741 0.119683 4.17984 0.257657 3.70327 0.455284C3.18139 0.671702 2.69666 0.959656 2.26133 1.30691C1.90859 1.58829 1.58828 1.9086 1.30691 2.26133C0.959655 2.69666 0.671701 3.18139 0.455283 3.70328C0.257657 4.17985 0.119683 4.68741 0.0506756 5.21664C0.0172449 5.47303 0 5.7345 0 6V31.25ZM0 57.75C3.31371 57.75 6 60.4363 6 63.75V102.25C6 105.564 3.31371 108.25 0 108.25V57.75ZM0 134.75C3.31371 134.75 6 137.436 6 140.75V179.25C6 182.564 3.31371 185.25 0 185.25V134.75ZM0 211.75C3.31371 211.75 6 214.436 6 217.75V256.25C6 259.564 3.31371 262.25 0 262.25V211.75ZM520.714 0C520.714 3.31371 523.401 6 526.714 6H546V25.25C546 28.5637 548.686 31.25 552 31.25V6C552 5.7345 551.983 5.47304 551.949 5.21666C551.88 4.68742 551.742 4.17985 551.545 3.70328C551.328 3.18139 551.04 2.69667 550.693 2.26134C550.412 1.9086 550.091 1.58828 549.739 1.30691C549.303 0.959651 548.819 0.671697 548.297 0.45528C547.82 0.257654 547.313 0.119681 546.783 0.0506746C546.527 0.0172446 546.266 0 546 0H520.714ZM546.002 6.0016C546.002 6.00108 546.002 6.00056 546.002 6.00002ZM545.998 5.99764C545.999 5.99786 545.999 5.99808 546 5.9983ZM552 288.75C548.686 288.75 546 291.436 546 294.75V314H526.714C523.401 314 520.714 316.686 520.714 320H546C546.266 320 546.527 319.983 546.783 319.949C547.313 319.88 547.82 319.742 548.297 319.545C548.819 319.328 549.303 319.04 549.739 318.693C550.091 318.412 550.412 318.091 550.693 317.739C551.04 317.303 551.328 316.819 551.545 316.297C551.742 315.82 551.88 315.313 551.949 314.783C551.983 314.527 552 314.266 552 314V288.75ZM545.998 314.002C545.999 314.002 545.999 314.002 546 314.002ZM546.002 313.998C546.002 313.999 546.002 313.999 546.002 314ZM5.99764 313.998C5.99785 313.999 5.99809 313.999 5.99829 314ZM6.0016 314.002C6.00106 314.002 6.00053 314.002 6 314.002Z" fill="#434550"/>
</svg>
